<svg width="21" height="20" viewBox="0 0 21 20" fill="none" xmlns="http://www.w3.org/2000/svg">
<path d="M15.4297 16.1391C15.275 16.3006 15.0946 16.3768 14.8884 16.3679C14.6823 16.3589 14.5019 16.2737 14.3472 16.1122C14.1926 15.9507 14.1153 15.7578 14.1153 15.5335C14.1153 15.3092 14.1926 15.1163 14.3472 14.9548L18.9091 10.1907L14.373 5.45346C14.2183 5.29197 14.1453 5.09907 14.1539 4.87477C14.1625 4.65047 14.2441 4.45757 14.3988 4.29608C14.5534 4.13458 14.7381 4.05383 14.9529 4.05383C15.1677 4.05383 15.3524 4.13458 15.507 4.29608L20.5843 9.62543C20.739 9.78693 20.8163 9.97534 20.8163 10.1907C20.8163 10.406 20.739 10.5944 20.5843 10.7559L15.4297 16.1391ZM6.15134 16.0583L1.04824 10.7559C0.893604 10.5944 0.816284 10.406 0.816284 10.1907C0.816284 9.97534 0.893604 9.78693 1.04824 9.62543L6.20288 4.24224C6.35752 4.08075 6.54223 4 6.75701 4C6.97178 4 7.15649 4.08075 7.31113 4.24224C7.46577 4.40374 7.54309 4.59664 7.54309 4.82094C7.54309 5.04524 7.46577 5.23813 7.31113 5.39963L2.7235 10.1907L7.25958 14.9279C7.41422 15.0894 7.49154 15.2778 7.49154 15.4931C7.49154 15.7084 7.41422 15.8968 7.25958 16.0583C7.10494 16.2198 6.92024 16.3006 6.70546 16.3006C6.49068 16.3006 6.30597 16.2198 6.15134 16.0583Z" fill="#282828"/>
</svg>
