<svg width="21" height="21" viewBox="0 0 21 21" fill="none" xmlns="http://www.w3.org/2000/svg">
<path fill-rule="evenodd" clip-rule="evenodd" d="M18.319 20.9199C19.3232 20.9199 20.1372 20.1059 20.1372 19.1017V2.7381C20.1372 1.73394 19.3232 0.919922 18.319 0.919922H1.95539C0.95123 0.919922 0.137212 1.73394 0.137212 2.7381V9.10174C0.137212 9.60381 0.54423 10.0108 1.0463 10.0108C1.54837 10.0108 1.95539 9.60381 1.95539 9.10174V2.7381H18.319V19.1017H11.9554C11.4533 19.1017 11.0463 19.5088 11.0463 20.0108C11.0463 20.5128 11.4533 20.9199 11.9554 20.9199H18.319ZM12.8645 9.10174C12.8645 9.10156 12.8645 9.10192 12.8645 9.10174V14.5563C12.8645 15.0584 12.4575 15.4654 11.9554 15.4654C11.4533 15.4654 11.0463 15.0584 11.0463 14.5563V11.2965L1.68912 20.6537C1.3341 21.0086 0.758502 21.0086 0.403484 20.6537C0.048448 20.2986 0.048448 19.723 0.403484 19.3679L9.76065 10.0108H6.50085C5.99877 10.0108 5.59176 9.60381 5.59176 9.10174C5.59176 8.59967 5.99877 8.19265 6.50085 8.19265H11.9554C12.0786 8.19265 12.1962 8.21718 12.3034 8.26163C12.409 8.30534 12.5081 8.36981 12.5944 8.45507C12.76 8.61872 12.863 8.84554 12.8645 9.09643" fill="#282828"/>
</svg>
