<svg width="31" height="30" viewBox="0 0 31 30" fill="none" xmlns="http://www.w3.org/2000/svg">
<g clip-path="url(#clip0_27_1583)">
<path d="M14.3755 -0.000244141H19.2798V22.7048C16.7661 23.1853 14.9146 23.3728 12.9048 23.3728C6.9165 23.3728 3.79932 20.6658 3.79932 15.4744C3.79932 10.4763 7.10986 7.22437 12.2368 7.22437C13.0337 7.22437 13.6372 7.28882 14.3696 7.47632L14.3755 -0.000244141ZM14.3755 11.4314C13.8423 11.2498 13.2798 11.1619 12.7173 11.1736C10.2329 11.1736 8.80322 12.7029 8.80322 15.3806C8.80322 17.9939 10.1685 19.4236 12.688 19.4236C13.2329 19.4236 13.6724 19.3943 14.3755 19.2947V11.4314ZM27.0845 7.57593V18.949C27.0845 22.863 26.8032 24.7498 25.9419 26.3728C25.145 27.9373 24.0903 28.9216 21.9282 30.0056L17.3755 27.8376C19.5376 26.8181 20.5923 25.9275 21.2603 24.5564C21.9575 23.156 22.1802 21.5271 22.1802 17.2615V7.57593H27.0845ZM22.1802 0.0231934H27.0845V5.0564H22.1802V0.0231934Z" fill="#092D1F"/>
</g>
<defs>
<clipPath id="clip0_27_1583">
<rect width="30" height="30" fill="white" transform="translate(0.441895 -0.000244141)"/>
</clipPath>
</defs>
</svg>
