<svg width="20" height="20" viewBox="0 0 20 20" fill="none" xmlns="http://www.w3.org/2000/svg">
<g clip-path="url(#clip0_37_426)">
<path d="M10 0C4.48624 0 0 4.48624 0 10C0 15.5138 4.48624 20 10 20C15.5138 20 20 15.5138 20 10C20 4.48624 15.5138 0 10 0ZM10 18.75C5.175 18.75 1.25 14.8238 1.25 10C1.25 5.175 5.175 1.25 10 1.25C14.8238 1.25 18.75 5.175 18.75 10C18.75 14.8238 14.8238 18.75 10 18.75Z" fill="white"/>
<path d="M10 2.5C9.47505 2.5 8.96253 2.555 8.46753 2.6575C9.37753 3.9475 10.2038 5.29 10.9313 6.68124C12.3075 6.04 13.6025 5.21252 14.7851 4.225C13.4863 3.1475 11.8188 2.5 10 2.5Z" fill="white"/>
<path d="M15.6763 5.10742C14.39 6.19118 12.975 7.08994 11.4725 7.79242C11.8013 8.47742 12.1063 9.17118 12.3888 9.87618C14.0488 9.53494 15.7763 9.5037 17.4888 9.78742C17.4388 7.99994 16.7663 6.36994 15.6763 5.10742Z" fill="white"/>
<path d="M7.21248 3.04102C4.96124 3.94352 3.25373 5.9035 2.69873 8.30978C5.12624 8.4135 7.52872 8.0085 9.765 7.15478C9.01372 5.7285 8.16248 4.3535 7.21248 3.04102Z" fill="white"/>
<path d="M10.325 8.28613C8.16 9.12989 5.84748 9.58989 3.49625 9.58989C3.1725 9.58989 2.8475 9.56989 2.5225 9.55241C2.51375 9.70113 2.5 9.84865 2.5 9.99989C2.5 11.8411 3.16625 13.5261 4.26752 14.8311C6.06876 12.5949 8.49 10.9924 11.17 10.1874C10.9088 9.54489 10.6262 8.91241 10.325 8.28613Z" fill="white"/>
<path d="M12.8475 11.0598C13.4438 12.7223 13.9113 14.4311 14.2538 16.1736C15.9438 15.0073 17.1238 13.1661 17.42 11.0386C15.8875 10.7673 14.3388 10.7798 12.8475 11.0598Z" fill="white"/>
<path d="M11.62 11.3501C9.09999 12.0863 6.82375 13.5989 5.15503 15.7201C6.46251 16.8289 8.15127 17.5001 9.99999 17.5001C11.11 17.5001 12.1613 17.2526 13.1087 16.8189C12.765 14.9513 12.265 13.1239 11.62 11.3501Z" fill="white"/>
</g>
<defs>
<clipPath id="clip0_37_426">
<rect width="20" height="20" fill="white"/>
</clipPath>
</defs>
</svg>
