<svg width="40" height="40" viewBox="0 0 40 40" fill="none" xmlns="http://www.w3.org/2000/svg">
<g clip-path="url(#clip0_27_1406)">
<path d="M20 40C31.0457 40 40 31.0457 40 20C40 8.9543 31.0457 0 20 0C8.9543 0 0 8.9543 0 20C0 31.0457 8.9543 40 20 40Z" fill="#FA597D"/>
<path d="M21.6034 37.7215C10.5577 37.7215 1.60336 28.7671 1.60336 17.7215C1.60336 13.9433 2.65148 10.4101 4.47211 7.39594C1.67656 10.8359 0 15.2219 0 20C0 31.0456 8.95437 40 20 40C27.2675 40 33.6292 36.1234 37.1312 30.3255C33.4642 34.8377 27.8709 37.7215 21.6034 37.7215Z" fill="#E0365C"/>
<path d="M30.8017 18.9873C29.0455 18.9873 27.3097 19.1219 25.6012 19.3884C25.2466 17.812 24.7761 16.2625 24.1914 14.7456C25.3234 13.8715 26.4041 12.9232 27.4274 11.8997C29.5842 9.74294 31.4138 7.3356 32.8961 4.71411C32.0295 3.98216 31.0998 3.32263 30.1162 2.74474C28.2463 6.13083 25.7424 9.11981 22.765 11.5501C21.1779 8.44231 19.1195 5.61474 16.6257 3.12091C15.8312 2.32646 15.0023 1.57716 14.1419 0.872314C12.883 1.25739 11.677 1.7631 10.5373 2.37638C14.5352 5.26177 17.7987 9.10458 19.987 13.5667C15.312 16.5694 9.75445 18.3122 3.7975 18.3122C2.54297 18.3122 1.30648 18.234 0.091875 18.084C0.031875 18.7147 0 19.3536 0 20C0 20.4983 0.0189062 20.9923 0.0546875 21.4816C1.29016 21.6187 2.53859 21.6878 3.7975 21.6878C8.30812 21.6878 12.6847 20.804 16.8057 19.0609C18.376 18.3968 19.882 17.6177 21.3198 16.7315C21.7061 17.8203 22.031 18.9379 22.291 20.0798C20.763 20.4816 19.262 20.993 17.7934 21.6142C13.8138 23.2974 10.2403 25.7067 7.17172 28.7752C6.08601 29.8609 5.08453 31.0111 4.1668 32.219C4.87203 33.1314 5.65383 33.9815 6.50344 34.759C10.4634 29.3214 16.2006 25.257 22.8549 23.4299C22.9756 24.5207 23.038 25.6287 23.038 26.7511C23.038 31.5031 21.9287 36.001 19.9559 39.9994C19.9706 39.9994 19.9852 40 20 40C21.3137 40 22.5974 39.8719 23.8403 39.6302C25.5475 35.5469 26.4134 31.2147 26.4134 26.7511C26.4134 25.394 26.3328 24.0489 26.1734 22.7192C27.6823 22.4849 29.228 22.363 30.8016 22.363C33.8829 22.363 36.8572 22.8296 39.6579 23.6954C39.8659 22.5825 39.9812 21.4373 39.9966 20.2678C37.0241 19.4172 33.9455 18.9873 30.8017 18.9873Z" fill="#C73052"/>
</g>
<defs>
<clipPath id="clip0_27_1406">
<rect width="40" height="40" fill="white"/>
</clipPath>
</defs>
</svg>
