<svg width="290" height="360" viewBox="0 0 290 360" fill="none" xmlns="http://www.w3.org/2000/svg">
<g clip-path="url(#clip0_27_1356)">
<path d="M221.557 146.13H220.817L215.757 122.454L220.817 102.922H221.557C231.448 102.922 239.466 110.553 239.466 119.966V129.086C239.466 138.498 231.448 146.13 221.557 146.13Z" fill="#FF965A"/>
<path d="M146.59 314.561C197.885 314.561 239.467 282.551 239.467 243.065C239.467 203.579 197.885 171.569 146.59 171.569C95.2955 171.569 53.7131 203.579 53.7131 243.065C53.7131 282.551 95.2955 314.561 146.59 314.561Z" fill="#FF3C3C"/>
<path d="M246.39 236.329L244.658 235.964L185.205 233.284C128.084 230.708 80.2911 274.09 80.2911 328.516V349.022C100.454 356.112 122.248 360 145 360C202.861 360 255.049 334.818 289.454 294.923V287.377C289.454 262.855 271.547 241.628 246.39 236.329Z" fill="#282828"/>
<path d="M146.736 303.265C202.678 303.265 248.031 296.017 248.031 252.953C248.031 247.193 247.211 241.582 245.673 236.178L144.784 214.931L43.58 236.309C18.2381 241.662 0.547852 263.047 0.547852 287.35V294.92C21.612 319.356 49.388 338.351 81.1936 349.355C89.3355 322.674 115.267 303.227 145.948 303.265C146.21 303.265 146.473 303.265 146.736 303.265Z" fill="#1A1A1D"/>
<path d="M239.467 243.065C239.467 282.551 197.885 289.198 146.59 289.198C95.2956 289.198 53.7131 282.551 53.7131 243.065C53.7131 203.579 95.2956 171.569 146.59 171.569C197.885 171.569 239.467 203.579 239.467 243.065Z" fill="#282828"/>
<path d="M210.444 233.394C210.444 260.54 181.856 282.547 146.591 282.547C111.326 282.547 82.7384 260.54 82.7384 233.394C82.7384 206.246 111.326 212.818 146.591 212.818C181.856 212.818 210.444 206.248 210.444 233.394Z" fill="#1A1A1D"/>
<path d="M145.183 268.578C160.042 268.578 172.086 257.114 172.086 242.974V185.622H118.279V242.972C118.279 257.114 130.323 268.578 145.183 268.578Z" fill="#FF965A"/>
<path d="M136.336 238.351L136.34 238.349C130.088 238.032 124.041 236.987 118.279 235.322V185.622H167.622L172.086 223.963C165.46 234.114 146.94 238.891 136.336 238.351Z" fill="#EF6A30"/>
<path d="M218.166 95.7861C218.166 72.4192 202.416 51.0523 177.865 51.0523H112.503C105.497 51.0523 99.0808 52.7974 93.4832 55.8267V179.332C93.4832 206.29 116.265 228.349 144.588 228.553C144.786 228.554 144.985 228.556 145.184 228.556C187.368 228.556 221.564 196.009 221.564 155.863V132.914L218.166 95.7861Z" fill="#FFBE82"/>
<path d="M221.557 132.718V116.334C225.307 116.334 228.349 119.227 228.349 122.797V126.256C228.349 129.824 225.309 132.718 221.557 132.718Z" fill="#EF6A30"/>
<path d="M50.1353 129.085C50.1353 138.498 58.1535 146.13 68.0439 146.13H69.1934L78.3614 127.747L69.3468 102.922H68.0432C58.1529 102.922 50.1346 110.553 50.1346 119.966L50.1353 129.085Z" fill="#FF965A"/>
<path d="M60.7594 126.38C60.7594 130.21 64.0209 133.314 68.0442 133.314V115.737C64.0209 115.737 60.7594 118.841 60.7594 122.67V126.38Z" fill="#EF6A30"/>
<path d="M55.8694 134.201C55.8694 140.599 61.3208 145.787 68.0446 145.787V122.754C61.3208 122.754 55.8694 127.942 55.8694 134.341V134.201Z" fill="white"/>
<path d="M112.179 128.699V133.824C112.179 137.167 115.028 139.879 118.541 139.879C122.054 139.879 124.903 137.167 124.903 133.824V128.699H112.179Z" fill="#FF965A"/>
<path d="M164.01 128.699V133.824C164.01 137.167 166.858 139.879 170.371 139.879C173.885 139.879 176.734 137.167 176.734 133.824V128.699H164.01Z" fill="#FF965A"/>
<path d="M118.541 135.029C115.028 135.029 112.179 132.318 112.179 128.975V121.187L114.524 117.807L112.179 114.428V112.416C112.179 109.073 115.028 106.362 118.541 106.362C122.054 106.362 124.903 109.073 124.903 112.416V128.975C124.903 132.318 122.054 135.029 118.541 135.029Z" fill="#0D1137"/>
<path d="M170.371 135.029C166.858 135.029 164.01 132.318 164.01 128.975V121.187L166.355 117.807L164.01 114.428V112.416C164.01 109.073 166.858 106.362 170.371 106.362C173.885 106.362 176.734 109.073 176.734 112.416V128.975C176.734 132.318 173.885 135.029 170.371 135.029Z" fill="#0D1137"/>
<path d="M126.92 103.335H108.369C104.855 103.335 102.007 100.624 102.007 97.2806C102.007 93.937 104.855 91.2261 108.369 91.2261H126.92C130.434 91.2261 133.283 93.937 133.283 97.2806C133.283 100.624 130.434 103.335 126.92 103.335Z" fill="#0D1137"/>
<path d="M179.934 103.335H161.381C157.868 103.335 155.02 100.624 155.02 97.2806C155.02 93.937 157.868 91.2261 161.381 91.2261H179.934C183.446 91.2261 186.295 93.937 186.295 97.2806C186.295 100.624 183.446 103.335 179.934 103.335Z" fill="#0D1137"/>
<path d="M168.605 168.524H162.053L144.803 171.932L127.552 168.524H121.757C119.813 168.524 118.26 170.138 118.52 171.973C119.015 175.481 120.258 178.763 122.09 181.67L157.02 191.522C164.909 187.837 170.625 180.583 171.841 171.973C172.101 170.138 170.548 168.524 168.605 168.524Z" fill="#BE1423"/>
<path d="M209.152 70.4962C209.882 70.4969 210.603 70.463 211.319 70.4124C204.461 58.9621 192.795 51.0512 177.862 51.0512H112.501C105.495 51.0512 99.0786 52.7963 93.4809 55.8257V57.3727C79.1108 63.7541 69.729 77.4166 69.729 94.183L68.0457 132.912V155.142C68.0457 197.099 104.983 230.683 149.321 228.448C117.209 219.572 93.7364 191.369 93.7364 157.944C93.9273 153.814 93.7364 113.79 93.7364 98.5867C93.7364 98.4782 93.7371 98.3705 93.7378 98.262C93.8599 82.7996 107.246 70.3997 123.493 70.4152L209.152 70.4962Z" fill="#FF965A"/>
<path d="M134.871 143.624C133.29 149.634 136.164 156.181 141.66 158.154C142.766 158.551 143.948 158.766 145.179 158.766C146.408 158.766 147.592 158.551 148.698 158.154C154.194 156.181 157.068 149.634 155.487 143.624L150.244 123.7C148.924 118.683 141.434 118.683 140.114 123.7L134.871 143.624Z" fill="#FF965A"/>
<path d="M221.556 55.4546V96.1691V96.1712V132.913C215.905 132.913 211.324 128.554 211.324 123.176V80.1833C211.324 70.6873 205.71 61.9346 196.737 57.7808C196.517 57.6787 196.297 57.5793 196.078 57.4829V55.4552L221.556 55.4546Z" fill="#070A27"/>
<path d="M114.524 123.419C113.229 123.419 112.179 122.419 112.179 121.187V114.428C112.179 113.195 113.229 112.196 114.524 112.196C115.819 112.196 116.869 113.195 116.869 114.428V121.187C116.869 122.419 115.819 123.419 114.524 123.419Z" fill="white"/>
<path d="M166.355 123.419C165.06 123.419 164.01 122.419 164.01 121.187V114.428C164.01 113.195 165.06 112.196 166.355 112.196C167.652 112.196 168.701 113.195 168.701 114.428V121.187C168.701 122.419 167.652 123.419 166.355 123.419Z" fill="white"/>
<path d="M122.093 181.669C126.794 189.132 135.373 194.129 145.18 194.129C149.429 194.129 153.447 193.188 157.019 191.519C155.483 182.35 147.138 175.342 137.072 175.342C131.132 175.342 125.79 177.782 122.093 181.669Z" fill="#FF3C3C"/>
<path d="M158.259 175.342H131.346C129.251 175.342 127.551 173.725 127.551 171.73V168.524H162.055V171.73C162.055 173.725 160.355 175.342 158.259 175.342Z" fill="white"/>
<path d="M156.331 0.0718591C134.472 0.0908807 116.899 17.1701 117.288 37.9718C117.453 46.8353 117.705 55.6972 118.089 64.5556C118.092 64.6288 118.095 64.7021 118.098 64.7754L209.153 64.8606C224.996 64.8754 237.848 52.6558 237.848 37.5767V0L156.331 0.0718591Z" fill="#0D1137"/>
<path d="M118.385 41.5762C118.385 18.6904 137.866 0.132446 161.913 0.111311L237.848 0.0443836V0L111.574 0.111311C87.5272 0.132446 68.0458 18.6911 68.0458 41.5762V96.1701V96.1721V132.914C73.696 132.914 78.2765 128.555 78.2765 123.178V80.1842C78.2765 80.1271 78.2765 80.0701 78.2772 80.0137C78.338 71.5266 85.7558 64.7458 94.6742 64.7542L118.385 64.776L118.385 41.5762Z" fill="#070A27"/>
<path d="M109.948 346.194C107.496 346.194 105.507 344.302 105.507 341.968V293.116C105.507 290.782 107.496 288.888 109.948 288.888C112.401 288.888 114.39 290.782 114.39 293.116V341.968C114.39 344.302 112.402 346.194 109.948 346.194Z" fill="#1A1A1D"/>
<path d="M109.948 335.626C107.496 335.626 105.507 333.733 105.507 331.399V282.547C105.507 280.213 107.496 278.321 109.948 278.321C112.401 278.321 114.39 280.213 114.39 282.547V331.399C114.39 333.733 112.402 335.626 109.948 335.626Z" fill="white"/>
<path d="M182.497 346.194C180.045 346.194 178.056 344.302 178.056 341.968V293.116C178.056 290.782 180.045 288.888 182.497 288.888C184.949 288.888 186.938 290.782 186.938 293.116V341.968C186.938 344.302 184.949 346.194 182.497 346.194Z" fill="#1A1A1D"/>
<path d="M182.497 335.626C180.045 335.626 178.056 333.733 178.056 331.399V282.547C178.056 280.213 180.045 278.321 182.497 278.321C184.949 278.321 186.938 280.213 186.938 282.547V331.399C186.938 333.733 184.949 335.626 182.497 335.626Z" fill="white"/>
<path d="M64.6724 161.936C62.8328 161.936 61.3412 160.517 61.3412 158.766V135.029C61.3412 133.278 62.8328 131.858 64.6724 131.858C66.5119 131.858 68.0035 133.278 68.0035 135.029V158.766C68.0035 160.518 66.5119 161.936 64.6724 161.936Z" fill="white"/>
<path d="M233.731 135.962C233.731 142.362 228.28 147.55 221.557 147.55V124.517C228.28 124.517 233.731 129.704 233.731 136.103V135.962Z" fill="white"/>
<path d="M224.934 163.699C223.095 163.699 221.603 162.28 221.603 160.529V136.792C221.603 135.041 223.095 133.621 224.934 133.621C226.774 133.621 228.265 135.041 228.265 136.792V160.529C228.265 162.28 226.775 163.699 224.934 163.699Z" fill="white"/>
</g>
<defs>
<clipPath id="clip0_27_1356">
<rect width="290" height="360" fill="white"/>
</clipPath>
</defs>
</svg>
