<svg width="31" height="30" viewBox="0 0 31 30" fill="none" xmlns="http://www.w3.org/2000/svg">
<path d="M14.692 0.00782897C14.6275 0.0136932 14.4222 0.0342181 14.2375 0.0488787C9.97649 0.432986 5.98529 2.73177 3.45743 6.26497C2.04981 8.22949 1.14951 10.4579 0.809336 12.8183C0.689101 13.6422 0.674438 13.8856 0.674438 15.0027C0.674438 16.1198 0.689101 16.3632 0.809336 17.1871C1.62459 22.8197 5.63338 27.5522 11.0703 29.3056C12.0439 29.6193 13.0703 29.8334 14.2375 29.9624C14.692 30.0122 16.6568 30.0122 17.1114 29.9624C19.1261 29.7395 20.8328 29.2411 22.5161 28.382C22.7741 28.25 22.824 28.2148 22.7888 28.1855C22.7653 28.1679 21.6656 26.6931 20.346 24.9103L17.9472 21.6703L14.9413 17.2223C13.2873 14.7769 11.9266 12.7772 11.9149 12.7772C11.9032 12.7743 11.8914 14.7505 11.8856 17.1637C11.8768 21.3889 11.8739 21.5589 11.8211 21.6586C11.7448 21.8023 11.6862 21.8609 11.563 21.9254C11.4692 21.9723 11.387 21.9811 10.9442 21.9811H10.4369L10.302 21.8961C10.214 21.8404 10.1495 21.7671 10.1055 21.6821L10.0439 21.5501L10.0498 15.6712L10.0586 9.78938L10.1495 9.67503C10.1964 9.61346 10.2961 9.53429 10.3665 9.49617C10.4868 9.43753 10.5337 9.43166 11.041 9.43166C11.6392 9.43166 11.739 9.45512 11.8944 9.62518C11.9384 9.6721 13.5659 12.1233 15.5131 15.076C17.4604 18.0286 20.1231 22.0603 21.431 24.0395L23.8064 27.6372L23.9266 27.558C24.9912 26.8661 26.1173 25.8809 27.0087 24.8546C28.9061 22.6761 30.129 20.0196 30.5395 17.1871C30.6598 16.3632 30.6744 16.1198 30.6744 15.0027C30.6744 13.8856 30.6598 13.6422 30.5395 12.8183C29.7243 7.18566 25.7155 2.45322 20.2785 0.699809C19.3196 0.389005 18.2991 0.17496 17.1554 0.0459465C16.8739 0.0166253 14.9354 -0.015628 14.692 0.00782897ZM20.8328 9.07981C20.9736 9.15018 21.0879 9.28506 21.129 9.4258C21.1524 9.50204 21.1583 11.1323 21.1524 14.8062L21.1436 20.0782L20.214 18.6532L19.2815 17.2282V13.3959C19.2815 10.9182 19.2932 9.52549 19.3108 9.45805C19.3577 9.29385 19.4604 9.16484 19.6011 9.08861C19.7214 9.02703 19.7653 9.02117 20.2258 9.02117C20.6598 9.02117 20.736 9.02703 20.8328 9.07981Z" fill="black"/>
</svg>
