<svg width="31" height="30" viewBox="0 0 31 30" fill="none" xmlns="http://www.w3.org/2000/svg">
<g clip-path="url(#clip0_27_1574)">
<path d="M20.6977 14.1063C22.9755 13.0738 23.3149 5.21503 21.9711 2.9003C20.2157 -0.12151 11.8715 0.485315 9.2366 2.64526C8.93407 3.71819 8.96573 5.66531 8.9798 7.21315H17.2502V7.93782H8.98156C8.98156 7.94838 5.30016 7.96069 5.30016 7.96069C-1.04776 7.96069 -0.915838 21.747 7.4601 21.747C7.4601 21.747 7.76791 18.6936 8.30614 17.1633C9.96831 12.4406 16.9512 15.8054 20.6977 14.1063ZM12.0385 6.09448C11.0852 6.09448 10.3131 5.32232 10.3131 4.36723C10.3131 3.4139 11.0852 2.63998 12.0385 2.63998C12.9936 2.63998 13.7658 3.4139 13.7658 4.36723C13.7676 5.32056 12.9936 6.09448 12.0385 6.09448Z" fill="#356D9C"/>
<path d="M23.9025 8.25098C23.9025 8.25098 23.6827 11.3062 23.1444 12.8347C21.4823 17.5556 14.5011 14.1926 10.7529 15.8917C8.47687 16.9242 8.13388 24.783 9.47945 27.0977C11.2331 30.1213 19.5774 29.5145 22.214 27.3528C22.5165 26.2816 22.4848 24.3345 22.4708 22.7866H14.1986V22.062H22.4673C22.4673 22.0514 26.5427 22.0391 26.5427 22.0391C32.3928 22.0391 32.9169 8.25098 23.9025 8.25098ZM19.1148 23.6045C20.0681 23.6045 20.842 24.3767 20.842 25.3318C20.842 26.2851 20.0681 27.0573 19.1148 27.0573C18.1614 27.0573 17.3893 26.2851 17.3893 25.3318C17.3893 24.3767 18.1614 23.6045 19.1148 23.6045Z" fill="#F7D042"/>
</g>
<defs>
<clipPath id="clip0_27_1574">
<rect width="30" height="30" fill="white" transform="translate(0.825592 -0.000244141)"/>
</clipPath>
</defs>
</svg>
