<svg width="31" height="30" viewBox="0 0 31 30" fill="none" xmlns="http://www.w3.org/2000/svg">
<g clip-path="url(#clip0_27_1515)">
<path fill-rule="evenodd" clip-rule="evenodd" d="M15.4535 0.325928C23.5577 0.325928 30.1275 6.89571 30.1275 14.9999C30.1275 23.1041 23.5576 29.6739 15.4535 29.6739C7.3494 29.6739 0.779541 23.1041 0.779541 14.9999C0.779541 6.89579 7.3494 0.325928 15.4535 0.325928Z" fill="white"/>
<path d="M24.658 6.60676C23.9935 4.00062 19.6723 3.1439 15.5824 4.59683C13.1485 5.46155 10.5135 6.81869 8.61897 8.59083C6.36633 10.6978 6.00712 12.5317 6.15512 13.298C6.6774 16.0018 10.3823 17.7692 11.9052 19.0804V19.0883C11.4561 19.3094 8.16926 20.9729 7.40004 22.6734C6.5884 24.4675 7.52919 25.7549 8.15212 25.928C10.082 26.4651 12.0625 25.4993 13.1268 23.9118C14.1538 22.3798 14.0683 20.4014 13.622 19.4174C14.2376 19.255 14.9555 19.1822 15.8677 19.2887C18.4418 19.5893 18.9468 21.1966 18.8503 21.8692C18.7537 22.5419 18.2138 22.9118 18.0333 23.0233C17.8528 23.135 17.7976 23.1737 17.8128 23.2568C17.8348 23.3774 17.9183 23.373 18.0722 23.3469C18.2841 23.3112 19.4239 22.7998 19.4725 21.5581C19.5346 19.9817 18.024 18.2183 15.349 18.2643C14.2473 18.2834 13.5547 18.3881 13.0543 18.5743C13.0173 18.5322 12.9796 18.4903 12.9407 18.4488C11.287 16.6844 8.2299 15.4363 8.35962 13.0645C8.40676 12.2022 8.70647 9.93155 14.2338 7.17726C18.7617 4.92105 22.3864 5.54197 23.0128 6.9179C23.9075 8.88376 21.0755 12.5374 16.3734 13.0645C14.5819 13.2653 13.6385 12.571 13.4039 12.3124C13.1569 12.0401 13.1201 12.0278 13.0278 12.079C12.8776 12.1622 12.9728 12.4025 13.0278 12.5458C13.1683 12.9112 13.7443 13.559 14.7265 13.8814C15.5906 14.165 17.694 14.3208 20.2378 13.3368C23.0868 12.2348 25.3115 9.16919 24.658 6.60676ZM12.5374 19.888C12.7508 20.6778 12.7275 21.4142 12.5069 22.0811C12.4824 22.1552 12.4555 22.2285 12.4262 22.3008C12.3968 22.3732 12.3652 22.4447 12.3311 22.5153C12.161 22.868 11.9329 23.1983 11.6534 23.5033C10.8008 24.4333 9.60962 24.785 9.09883 24.4888C8.54726 24.169 8.82347 22.8576 9.81204 21.8127C10.8754 20.6885 12.4055 19.9658 12.4055 19.9658L12.4032 19.9612C12.4472 19.9374 12.492 19.913 12.5374 19.888Z" fill="#CC6699"/>
</g>
<defs>
<clipPath id="clip0_27_1515">
<rect width="30" height="30" fill="white" transform="translate(0.453491)"/>
</clipPath>
</defs>
</svg>
