<svg width="42" height="42" viewBox="0 0 42 42" fill="none" xmlns="http://www.w3.org/2000/svg">
<g clip-path="url(#clip0_37_399)">
<path d="M32.2726 22.9297C30.3525 22.9297 28.5554 22.1163 26.9202 20.7917L27.3182 18.9229L27.3358 18.8546C27.6909 16.8649 28.8149 13.5232 32.2726 13.5232C34.8659 13.5232 36.9752 15.6359 36.9752 18.2303C36.9674 20.8171 34.8581 22.9297 32.2726 22.9297ZM32.2726 8.75361C27.8549 8.75361 24.4303 11.6271 23.039 16.3518C20.9121 13.1584 19.3043 9.32518 18.3618 6.09668H13.6084V18.48C13.6084 20.9204 11.62 22.9102 9.18093 22.9102C6.7418 22.9102 4.75537 20.9204 4.75537 18.48V6.09668H5.58672e-05V18.48C-0.0175058 23.552 4.10754 27.715 9.17314 27.715C14.2387 27.715 18.3638 23.552 18.3638 18.48V16.4025C19.2886 18.3318 20.4204 20.2787 21.7961 22.011L18.8828 35.7189H23.7513L25.8606 25.7759C27.7104 26.9619 29.8374 27.7052 32.2765 27.7052C37.4903 27.7052 41.7344 23.4291 41.7344 18.2108C41.7305 13.0024 37.4865 8.75361 32.2726 8.75361Z" fill="#14A800"/>
</g>
<defs>
<clipPath id="clip0_37_399">
<rect width="42" height="29.8065" fill="white" transform="translate(0 6.09668)"/>
</clipPath>
</defs>
</svg>
